<?xml version="1.0" standalone="no"?>
<!DOCTYPE svg PUBLIC "-//W3C//DTD SVG 20010904//EN"
 "http://www.w3.org/TR/2001/REC-SVG-20010904/DTD/svg10.dtd">
<svg version="1.0" xmlns="http://www.w3.org/2000/svg"
 width="48.000000pt" height="48.000000pt" viewBox="0 0 48.000000 48.000000"
 preserveAspectRatio="xMidYMid meet">
<metadata>
Created by potrace 1.16, written by Peter Selinger 2001-2019
</metadata>
<g transform="translate(0.000000,48.000000) scale(0.100000,-0.100000)"
fill="#000000" stroke="none">
<path d="M230 415 c-26 -73 -35 -87 -72 -120 -21 -20 -52 -38 -68 -42 -17 -3
-30 -8 -30 -12 0 -3 20 -14 45 -25 55 -22 101 -75 119 -136 l14 -45 11 30 c6
17 16 42 22 57 15 38 83 97 119 105 40 8 38 18 -8 31 -51 16 -101 70 -123 134
l-18 53 -11 -30z"/>
</g>
</svg>
